**ABCDEFGHIJKLMNOPQRSTUVWXYZabcdefghijklmnopqrstuvwxyz**************************
**PARASOLID !"#$%&'()*+,-./:;<=>?@[\]^_`{|}~0123456789**************************
**PART1;
MC=AMD64;
MC_MODEL=Intel64 Family 6 Model 167 Stepping 1, GenuineIntel;
MC_ID=unknown;
OS=Windows_NT;
OS_RELEASE=unknown;
FRU=Parasolid Version 33.1, build 255,  1- 8-2022;
APPL=SOLIDWORKS 2022-2022167;
SITE=;
USER=unknown;
FORMAT=text;
GUISE=transmit;
KEY=FILEdrop_gen.x_t;
DATE=Fri Mar 29 18:24:26 2024;
**PART2;
SCH=SCH_3301255_33103;
USFLD_SIZE=0;
**PART3;
**END_OF_HEADER*****************************************************************
T51 : TRANSMIT FILE created by modeller version 330125523 SCH_3301255_33103_1300
6230 0 12 35 CCCI7 lattice222 0 CCCI4 mesh1006 0 I8 polyline1008 0 CCCCCCCDI5 ow
ner1040 0 CCCCCCI13 boundary_mesh1006 0 I17 boundary_polyline1008 0 CCCA16 index
_map_offset0 0 1 dA9 index_map82 0 A17 node_id_index_map82 0 A20 schema_embeddin
g_map82 0 A5 child12 0 A14 lowest_node_id0 0 1 dA16 mesh_offset_data206 0 Z1 188
 2 3 0 0 0 0 0 0 0 1e3 1e-8 0 4 0 1 0 3 1 5 6 7 8 0 0 9 10 11 0 0 0 0 0 0 0 81 2
55 2 2 187 12 1 13 0 0 0 0 14 70 11 CI9 list_type0 0 1 uI10 notransmit0 0 1 lCCC
DCCDI12 finger_index0 0 1 dI12 finger_block1012 0 CZ3 0 4 T1 0 0 9 20 1 15 15 13
 255 5 118 0 1 0 16 0 0 9 16 50 255 6 3 0 16 0 0 0 +0 0 0 0 0 -1 -1 0 0 30 255 7
 67 0 10 17 0 0 +.02486602540378445 .001 0 0 1 0 29 255 8 116 0 11 18 0 .0248660
2540378445 .001 0 19 8 CCCCCCCA5 owner12 0 Z9 117 0 1 0 0 5 V0 16 255 10 65 0 ?1
9 0 20 7 0 0 1 18 255 11 114 0 21 0 22 8 ?1 17 255 21 0 0 0 0 11 23 24 0 19 -18
 22 111 0 25 11 26 18 ?1 17 25 0 27 19 28 22 29 20 0 30 +18 26 108 0 28 22 31 32
 ?1 29 18 113 0 22 32 8 .02486602540378445 -.001 0 29 32 110 0 26 33 18 .0048660
2540378444 -.001 0 29 33 107 0 31 34 32 .004 -5e-4 0 18 31 105 0 35 26 36 33 ?1
 29 34 104 0 36 37 33 .003 -5e-4 0 18 36 102 0 38 31 39 34 ?1 29 37 101 0 39 40
 34 .003 -.0035 0 18 39 99 0 41 36 42 37 ?1 29 40 98 0 42 43 37 .002 -.0035 0 18
 42 96 0 44 39 45 40 ?1 29 43 95 0 45 46 40 .002 -5e-4 0 18 45 93 0 47 42 48 43
 ?1 29 46 92 0 48 49 43 0 -5e-4 0 18 48 90 0 50 45 51 46 ?1 29 49 89 0 51 52 46
 0 5e-4 0 18 51 87 0 53 48 54 49 ?1 29 52 86 0 54 55 49 .002 5e-4 0 18 54 84 0 5
6 51 57 52 ?1 29 55 83 0 57 58 52 .002 .0035 0 18 57 81 0 59 54 60 55 ?1 29 58 8
0 0 60 61 55 .003 .0035 0 18 60 78 0 62 57 63 58 ?1 29 61 77 0 63 64 58 .003 5e-
4 0 18 63 75 0 65 60 66 61 ?1 29 64 74 0 66 67 61 .004 5e-4 0 18 66 72 0 68 63 6
9 64 ?1 29 67 71 0 69 0 64 .00486602540378444 .001 0 18 69 69 0 23 66 0 67 ?1 17
 23 0 27 68 19 69 21 24 0 70 +15 255 27 4 0 23 16 0 17 68 0 27 65 23 66 70 71 0
 72 +17 19 0 27 23 25 11 30 10 0 0 +16 24 5 0 ?23 71 0 73 0 0 1 17 70 0 0 0 0 69
 68 71 0 0 -16 71 9 0 ?68 74 24 75 0 0 1 16 74 13 0 ?65 76 71 77 0 0 1 30 75 11
 0 71 73 77 0 +.004 5e-4 0 -.866025403784438 -.5 0 30 73 7 0 24 0 75 0 +.0048660
2540378444 .001 0 -1 0 0 30 77 15 0 74 75 78 0 +.003 5e-4 0 -1 1084202172485504e
-31 0 30 78 19 0 76 77 79 0 +.003 .0035 0 -144560289664734e-30 1 0 16 76 17 0 ?6
2 80 74 78 0 0 1 30 79 23 0 80 78 81 0 +.002 .0035 0 -1 0 0 16 80 21 0 ?59 82 76
 79 0 0 1 30 81 27 0 82 79 83 0 +.002 5e-4 0 0 -1 0 16 82 25 0 ?56 84 80 81 0 0
 1 30 83 31 0 84 81 85 0 +0 5e-4 0 -1 0 0 16 84 29 0 ?53 86 82 83 0 0 1 30 85 35
 0 86 83 87 0 +0 -5e-4 0 0 -1 0 16 86 33 0 ?50 88 84 85 0 0 1 30 87 39 0 88 85 8
9 0 +0 -5e-4 0 1 0 0 16 88 37 0 ?47 90 86 87 0 0 1 30 89 43 0 90 87 91 0 +.002 -
5e-4 0 0 -1 0 16 90 41 0 ?44 92 88 89 0 0 1 30 91 47 0 92 89 93 0 +.002 -.0035 0
 1 0 0 16 92 45 0 ?41 94 90 91 0 0 1 30 93 51 0 94 91 95 0 +.003 -.0035 0 144560
289664734e-30 1 0 16 94 49 0 ?38 96 92 93 0 0 1 30 95 55 0 96 93 97 0 +.003 -5e-
4 0 1 1084202172485504e-31 0 16 96 53 0 ?35 98 94 95 0 0 1 30 97 59 0 98 95 17 0
 +.004 -5e-4 0 .866025403784438 -.5 0 16 98 57 0 ?28 20 96 97 0 0 1 30 17 63 0 2
0 97 7 0 +.00486602540378444 -.001 0 1 0 0 16 20 61 0 ?25 10 98 17 0 0 1 17 28 0
 27 25 35 26 99 98 0 29 +17 35 0 27 28 38 31 100 96 0 99 +17 99 0 0 0 0 31 28 98
 0 0 -17 29 0 0 0 0 26 25 20 0 0 -17 38 0 27 35 41 36 101 94 0 100 +17 100 0 0 0
 0 36 35 96 0 0 -17 41 0 27 38 44 39 102 92 0 101 +17 101 0 0 0 0 39 38 94 0 0 -
17 44 0 27 41 47 42 103 90 0 102 +17 102 0 0 0 0 42 41 92 0 0 -17 47 0 27 44 50
 45 104 88 0 103 +17 103 0 0 0 0 45 44 90 0 0 -17 50 0 27 47 53 48 105 86 0 104
 +17 104 0 0 0 0 48 47 88 0 0 -17 53 0 27 50 56 51 106 84 0 105 +17 105 0 0 0 0
 51 50 86 0 0 -17 56 0 27 53 59 54 107 82 0 106 +17 106 0 0 0 0 54 53 84 0 0 -17
 59 0 27 56 62 57 108 80 0 107 +17 107 0 0 0 0 57 56 82 0 0 -17 62 0 27 59 65 60
 109 76 0 108 +17 108 0 0 0 0 60 59 80 0 0 -17 65 0 27 62 68 63 72 74 0 109 +17
 109 0 0 0 0 63 62 76 0 0 -17 72 0 0 0 0 66 65 74 0 0 -17 30 0 0 0 0 22 19 10 0
 0 -14 255 16 1 110 ?0 0 27 5 6 -0 0 0 0 5 81 1 110 188 111 16 112 0 0 0 113 80
 255 1 111 114 115 9000 1 1 1 1 1 1 1 1 0 FFFFTFTFFFFFFF1 81 1 112 167 116 16 0
 110 0 0 117 82 255 1 113 95158398 80 1 116 0 118 8001 0 0 0 0 3 5 0 0 0 FFFFTFT
FFFFFFF2 83 255 3 117 .792156862745098 .819607843137255 .933333333333333 79 255
 15 118 SDL/TYSA_COLOUR79 14 115 SWEntUnchanged74 4 CI16 index_map_offset0 0 1 d
CCZ20 15 9 0 0 119 120 121 122 123 13 112 2 110 0 0 0 0 0 0 0 0 0 0 0 81 2 119 1
37 124 1 0 120 0 0 0 125 81 2 120 140 126 1 119 121 0 0 0 127 81 1 121 142 128 1
 120 122 0 0 129 81 2 122 144 130 1 121 123 0 0 0 0 81 2 123 147 131 1 122 13 0
 0 132 0 81 2 13 166 133 1 123 2 0 0 0 134 80 2 133 135 136 9000 0 0 0 0 3 5 0 0
 0 FFTFFFFFFFFFFF9 1 82 1 134 1 79 24 136 BODY_IN_LIGHTWEIGHT_PERM80 2 131 137 1
38 8004 0 0 0 0 3 5 0 0 0 FFTFFFFFFFFFFF2 3 83 1 132 1 79 16 138 SDL/TYSA_DENSIT
Y80 2 130 139 140 9000 0 0 0 0 3 5 0 0 0 FFTFFFFFFFFFFF9 1 79 16 140 BODY_RECIPE
_200180 1 128 141 142 9000 1 1 1 1 1 1 1 1 0 FFTFFFFFFFFFFF1 82 1 129 1443242 79
 10 142 BODY_MATCH80 2 126 143 144 9000 0 0 0 0 3 5 0 0 0 FFTFFFFFFFFFFF9 1 82 1
 127 77 79 30 144 LAST_BODY_MODIFYING_FEATURE_ID80 2 124 145 146 9000 0 0 0 0 3
 5 0 0 0 FFTFFFFFFFFFFF9 1 82 1 125 109 79 19 146 ENT_TIME_STAMP_200180 2 12 147
 148 9000 0 0 0 0 3 5 0 0 0 FFTFFFFFFFFFFF9 1 82 1 14 101 79 12 148 ATOM_ID_2001
1 0 
